<?xml version="1.0" encoding="UTF-8"?>
<svg id="Ebene_1" xmlns="http://www.w3.org/2000/svg" version="1.1" viewBox="0 0 841.89 595.28">
  <!-- Generator: Adobe Illustrator 29.2.0, SVG Export Plug-In . SVG Version: 2.1.0 Build 108)  -->
  <defs>
    <style>
      .st0 {
        fill: #3c444c;
      }
    </style>
  </defs>
  <g>
    <path class="st0" d="M540.15,397.08l-4.65-16.92c-.14-.6-.35-1.54-.35-1.8,0-.6.33-.75,1.6-1.04.97-.21,1.41-.29,1.64-.29.6,0,.75.37.97,1.37,1.53,5.95,2.82,10.97,4.15,16.75.06.19.1.19.21.19.12,0,.17,0,.21-.19,1.29-5.35,2.63-10.87,3.98-15.91q.52-2.03,3.07-2.03c2.51,0,2.53,0,3.03,2.03,1.51,5.74,2.74,10.51,4.11,15.91.04.19.08.19.21.19s.15,0,.21-.19c1.27-5.54,2.63-10.95,4.04-16.69.21-.97.35-1.45.95-1.45.33,0,.89.12,1.66.29,1.43.31,1.6.54,1.6,1.04,0,.23-.12.97-.33,1.8l-4.65,16.94q-.52,2.03-3.48,2.03t-3.36-2.03l-3.77-14.83c-.04-.14-.08-.17-.21-.17-.1,0-.15.02-.19.17l-3.84,14.83q-.46,2.03-3.3,2.03c-2.99,0-3.01,0-3.5-2.03Z"/>
    <path class="st0" d="M570.43,391.06c-.15-1.56-.17-4.04-.02-5.54.48-5.06,4.15-8.65,9.58-8.65s9.04,3.69,9.04,9.04v1.31c0,2.14-.39,2.47-2.36,2.47h-12.36l.04,1.04c.21,2.99,2.45,4.96,5.85,4.96,1.95,0,3.4-.37,4.81-.95.66-.29,1.04-.46,1.39-.46.39,0,.62.29,1.08,1.35.37.85.46,1.18.46,1.41,0,.35-.21.58-1.06.95-1.99.87-4.19,1.51-6.68,1.51-5.56,0-9.29-3.46-9.77-8.44ZM585.16,386.61c.31-3.9-1.91-6.1-5.27-6.1s-5.31,2.16-5.54,5.33c-.02.25-.02.52-.04.77h10.85Z"/>
    <path class="st0" d="M604.16,391.19c-.14-1.68-.14-4.38,0-6.03.48-4.94,3.96-8.32,9.1-8.32,1.99,0,4.06.5,5.43,1.18v-6.74q0-1.95,2.07-1.95t2.07,1.95v24.3c0,.85-.25,1.26-.81,1.66-1.37.89-4.67,2.26-8.44,2.26-5.47,0-8.96-3.4-9.44-8.32ZM613.72,395.46c1.72,0,3.9-.52,4.98-1.29v-12.03c-1.08-.75-3.26-1.29-4.98-1.29-3.3,0-5.14,1.95-5.41,4.87-.14,1.55-.14,3.4,0,4.87.25,2.9,2.12,4.85,5.41,4.85Z"/>
    <path class="st0" d="M628.52,391.02c-.17-1.58-.17-4.15-.02-5.7.48-5,4.25-8.48,9.64-8.48s9.19,3.48,9.64,8.48c.15,1.56.15,4.13,0,5.7-.5,4.98-4.25,8.48-9.64,8.48s-9.12-3.5-9.62-8.48ZM638.14,395.46c3.15,0,5.25-2.03,5.54-5,.12-1.47.12-3.13,0-4.6-.29-2.96-2.38-5-5.54-5s-5.23,2.03-5.52,5c-.15,1.47-.15,3.13,0,4.6.27,2.97,2.38,5,5.52,5Z"/>
    <path class="st0" d="M663.28,391.06c-.15-1.56-.17-4.04-.02-5.54.48-5.06,4.15-8.65,9.58-8.65s9.04,3.69,9.04,9.04v1.31c0,2.14-.39,2.47-2.36,2.47h-12.36l.04,1.04c.21,2.99,2.45,4.96,5.85,4.96,1.95,0,3.4-.37,4.81-.95.66-.29,1.04-.46,1.39-.46.39,0,.62.29,1.08,1.35.37.85.46,1.18.46,1.41,0,.35-.21.58-1.06.95-1.99.87-4.19,1.51-6.68,1.51-5.56,0-9.29-3.46-9.77-8.44ZM678.01,386.61c.31-3.9-1.91-6.1-5.27-6.1s-5.31,2.16-5.54,5.33c-.02.25-.02.52-.04.77h10.85Z"/>
    <path class="st0" d="M687.04,387.95q0-1.89,1.99-1.89h5.83q1.97,0,1.97,1.89t-1.97,1.89h-5.83q-1.99,0-1.99-1.89Z"/>
    <path class="st0" d="M702.44,391.15c-.17-1.64-.17-4.31,0-5.95.46-4.92,4.09-8.36,9.46-8.36,4.67,0,7.49,2.43,8.63,5.31.21.54.31.97.31,1.18,0,.6-.39.85-1.55,1.24-.79.27-1.2.35-1.45.35-.48,0-.64-.21-.85-.71-.85-2.16-2.45-3.36-5.04-3.36-3.17,0-5.1,1.97-5.39,4.89-.15,1.51-.12,3.32,0,4.85.27,2.88,2.2,4.85,5.39,4.85,2.59,0,4.19-1.2,5.04-3.36.21-.48.37-.71.85-.71.25,0,.66.08,1.45.35,1.16.39,1.55.66,1.55,1.24,0,.21-.1.64-.31,1.2-1.14,2.86-3.96,5.31-8.63,5.31-5.37,0-8.98-3.44-9.46-8.36Z"/>
    <path class="st0" d="M725.14,391.02c-.17-1.58-.17-4.15-.02-5.7.48-5,4.25-8.48,9.64-8.48s9.19,3.48,9.64,8.48c.15,1.56.15,4.13,0,5.7-.5,4.98-4.25,8.48-9.64,8.48s-9.12-3.5-9.62-8.48ZM734.76,395.46c3.15,0,5.25-2.03,5.54-5,.12-1.47.12-3.13,0-4.6-.29-2.96-2.38-5-5.54-5s-5.23,2.03-5.52,5c-.15,1.47-.15,3.13,0,4.6.27,2.97,2.38,5,5.52,5Z"/>
    <path class="st0" d="M750.04,397.16v-15.64c0-1.55.15-1.99,1.06-2.57,1.43-.97,4.4-2.12,7.32-2.12s4.85.91,6.28,2.36c1.64-1.18,3.86-2.36,6.84-2.36,5.45,0,7.86,3.13,7.86,7.96v12.34q0,1.95-2.07,1.95t-2.07-1.95v-11.82c0-2.9-1.31-4.46-4.23-4.46-1.89,0-3.4.83-4.44,1.68.17.89.23,1.66.23,2.82v11.8q0,1.95-2.09,1.95-2.07,0-2.07-1.95v-11.86c0-3.05-1.35-4.44-4.33-4.44-1.37,0-3.21.73-4.11,1.29v15.01q0,1.95-2.09,1.95-2.07,0-2.07-1.95Z"/>
  </g>
  <path class="st0" d="M167.17,237.07c-8.44-2.44-11.53,2.62-13.57,9.7-2.31,6.6-7,19.95-12.01,34.25-5.69,16.21-11.86,33.86-16.8,47.85-5.27,13.19-8.86-5.94-11.62-12.34-6.54-18.57-19.78-56.21-24.47-69.52-1.34-3.37-2.04-7.43-5.27-9.44-4.6-2.97-13.32,0-14.72,5.83-.95,3.99,1.2,7.75,2.4,11.54,6.68,18.02,22.37,61.87,31.44,85.86l.08.18c4.22,11.39,14.09,13.02,25.26,10.91,9.55-2.19,11.68-12.54,14.77-20.32,7.21-20.14,24.41-64.93,30.76-83.97,1.31-4.45-1.7-9.04-6.24-10.54Z"/>
  <path class="st0" d="M454.72,236.97h-23.36c-9.88,0-17.89,8.01-17.89,17.89v79.37c0,9.88,8.01,17.89,17.89,17.89h23.36c30.86,0,49.86-19.57,51.89-44.5.65-8.61.65-17.46,0-26.07-2.03-25.09-21.03-44.58-51.89-44.58ZM487.53,305.75c-1.22,16.4-12.1,28.34-33.21,28.34h-18.08c-2.08,0-3.76-1.68-3.76-3.76v-71.57c0-2.08,1.68-3.76,3.76-3.76h18.08c21.11,0,31.83,11.86,33.21,28.42.57,7.23.57,15.02,0,22.33Z"/>
  <path class="st0" d="M576.05,235.43c-27.29,0-47.67,19.73-49.54,45.56-.65,9.18-.73,18.03,0,27.2,1.95,25.74,22.25,45.48,49.54,45.48s47.67-19.81,49.54-45.48c.65-9.18.65-18.11,0-27.2-1.79-25.82-22.33-45.56-49.54-45.56ZM606.66,306.4c-1.46,17.62-13.48,29.48-30.61,29.48s-29.32-11.86-30.62-29.48c-.65-7.96-.65-15.75-.08-23.63,1.38-17.7,13.48-29.48,30.7-29.48s29.15,11.69,30.53,29.48c.65,7.96.73,15.67.08,23.63Z"/>
  <rect class="st0" x="188.63" y="334.56" width="77.31" height="17.56" rx="7.69" ry="7.69"/>
  <rect class="st0" x="188.63" y="236.97" width="77.31" height="17.56" rx="7.74" ry="7.74"/>
  <rect class="st0" x="188.63" y="285.77" width="46.37" height="17.56" rx="7.71" ry="7.71"/>
  <rect class="st0" x="756.66" y="236.13" width="19.81" height="19.81" rx="6.95" ry="6.95"/>
  <path class="st0" d="M383.97,244.99c0-4.26-3.45-7.71-7.71-7.71h-3.55c-4.26,0-7.71,3.45-7.71,7.71v82.63c-7.8-12.15-48.19-82.86-48.57-82.93q-4.22-7.72-14.86-7.72-14.54,0-14.54,13.56v93.87c0,4.26,3.45,7.71,7.71,7.71h3.36c4.26,0,7.71-3.45,7.71-7.71v-83.66c7.55,11.2,48.9,83.98,49.34,83.91,4.22,7.39,4.14,7.47,16.57,7.47s12.26,0,12.26-12.91v-78.42c0-1.25,0-2.33-.02-3.28v-12.53Z"/>
  <path class="st0" d="M704.22,310.2c-1.17-1.43-.53-3.54,1.21-4.17,13.57-4.89,21.4-16.63,21.4-31.11,0-21.28-13.81-36.87-37.6-36.87h-42.02c-4.26,0-7.71,3.45-7.71,7.71v2.27c0,4.26,3.45,7.71,7.71,7.71h40.48c13.48,0,20.14,7.47,20.14,19.16s-6.74,18.76-20.14,18.76h-29.22c-4.26,0-7.71,3.45-7.71,7.71v2.13c0,4.26,3.45,7.71,7.71,7.71h18.1s.1-.01.14-.01h.42c4.39,0,4.71.16,6.82,2.76l29.15,36.54c2.44,3.09,3.57,3.74,5.03,3.74,1.38,0,3.33-.73,6.82-3.41,4.22-3.17,5.68-4.79,5.68-6.58,0-1.06-.32-2.19-2.52-4.87l-23.9-29.2Z"/>
  <rect class="st0" x="757.22" y="272.25" width="18.69" height="82.01" rx="5.77" ry="5.77"/>
</svg>