<?xml version="1.0" encoding="UTF-8"?>
<svg id="Ebene_1" xmlns="http://www.w3.org/2000/svg" version="1.1" viewBox="0 0 841.89 595.28">
  <!-- Generator: Adobe Illustrator 29.2.1, SVG Export Plug-In . SVG Version: 2.1.0 Build 116)  -->
  <defs>
    <style>
      .st0 {
        fill: #ffffff;
      }

      .st1 {
        isolation: isolate;
      }
    </style>
  </defs>
  <g>
    <path class="st0" d="M125.07,352.86c1.06,0,1.35,0,2.4,0l-.03,7.97c-1.06,0-1.34,0-2.4,0-10.18-.04-18.48,8.28-18.52,18.37l-.1,23.92c-.06,14.6-11.92,26.37-26.53,26.31-1.06,0-1.35,0-2.4,0l.03-7.97c1.06,0,1.35,0,2.4,0,10.18.04,18.48-8.28,18.52-18.37l.1-23.92c.06-14.6,11.92-26.37,26.53-26.31Z"/>
    <path class="st0" d="M176.25,383.43l.08-19.98,7.97.03-.23,56.01-7.97-.03.12-28.05-32.09-.13-.12,28.05-7.97-.03.31-76.09,7.97.03-.17,40.06,32.09.13Z"/>
    <path class="st0" d="M252.2,391.72c-.06,14.6-11.92,26.37-26.53,26.31-14.6-.06-26.37-11.92-26.31-26.53.06-14.6,11.93-26.37,26.53-26.31,14.6.06,26.37,11.93,26.31,26.53ZM207.34,391.63c-.04,10.18,8.19,18.38,18.37,18.42,10.18.04,18.48-8.09,18.52-18.27.04-10.18-8.19-18.58-18.37-18.62-10.18-.04-18.48,8.28-18.52,18.47Z"/>
    <path class="st0" d="M283,400.97l20.17-45.55,19.79,45.71,16.48-37.01,7.48,3.2-24.05,54.08-19.79-45.71-20.17,45.55-23.6-54.28,7.51-3.14,16.18,37.15Z"/>
    <path class="st0" d="M361.78,400.24c-.04,10.09,8.19,18.48,18.27,18.52,1.06,0,1.34,0,2.4,0l-.03,7.97c-1.06,0-1.34,0-2.4,0-14.41-.06-26.37-12.12-26.31-26.53l.03-8.07c.06-14.41,11.73-26.37,26.53-26.31s26.37,12.12,26.31,26.53c0,1.06-.03,6.44-.03,6.44l-44.77-.18v1.63ZM380.24,373.8c-9.8-.04-17.32,7.23-18.42,16.83l36.79.15c-1.02-9.61-8.58-16.94-18.38-16.98Z"/>
    <path class="st0" d="M429.98,356.42l-.07,17.39c4.82-4.78,11.27-7.74,18.48-7.71h1.63s-.03,8.08-.03,8.08h-1.63c-10.18-.05-18.48,8.18-18.52,18.27l-.12,28.05-7.97-.03.26-64.08,7.97.03Z"/>
    <path class="st0" d="M464.02,322.55l26.04.11,35.05,70.21h.61s.29-70.06.29-70.06l18.89.08-.4,98.09-26.05-.11-35.05-70.21h-.61s-.29,70.06-.29,70.06l-18.89-.08.4-98.09Z"/>
    <path class="st0" d="M567.74,322.97l19.19.08-.4,98.09-19.19-.08.4-98.09Z"/>
    <path class="st0" d="M602.88,407.2l43.69-67.14-42.04-.17.07-16.75,66.41.27-.06,14.01-43.69,67.14,44.32.18-.07,16.75-68.69-.28.06-14.01Z"/>
    <path class="st0" d="M687.6,324.84c7.62-1.19,21.18-2.66,31.24-2.61,21.93.09,37.9,7.47,37.8,30.62-.06,15.84-7.56,24.34-18.24,28.25,5.74,12.06,14.21,27.02,22.07,40.45l-.15.3-22.54-.09c-6.8-12.37-13.75-26.1-19.19-37.7-4.57-.02-8.68-.34-12.03-.81l-.16,38.38-19.19-.08.4-96.72ZM718.03,369.13c12.19.05,19.05-3.12,19.1-15.15.05-11.88-6.79-15.11-18.67-15.16-3.66-.02-8.38.27-11.73.56l-.12,29.09c3.65.47,8.83.65,11.42.66Z"/>
  </g>
  <g class="st1">
    <polygon class="st0" points="536.39 272.49 494.13 254.67 499.58 137.14 544.12 143.39 536.39 272.49"/>
    <polygon class="st0" points="333.12 317.16 306.19 292.29 494.13 254.67 536.39 272.49 333.12 317.16"/>
    <polygon class="st0" points="331.98 318.55 305.15 293.52 293.77 148.36 320.78 157.06 331.98 318.55"/>
    <polygon class="st0" points="320.78 157.06 293.77 148.36 500.52 136.09 545.14 142.23 320.78 157.06"/>
    <path class="st0" d="M320.78,157.06l224.37-14.84-7.91,131.07-205.26,45.26-11.2-161.48ZM536.39,272.49l7.73-129.1-221.96,14.85,10.95,158.93,203.27-44.68"/>
  </g>
</svg>